<?xml version="1.0" standalone="no"?><!DOCTYPE svg PUBLIC "-//W3C//DTD SVG 1.1//EN" "http://www.w3.org/Graphics/SVG/1.1/DTD/svg11.dtd"><svg t="1710213259925" class="icon" viewBox="0 0 1024 1024" version="1.1" xmlns="http://www.w3.org/2000/svg" p-id="5463" xmlns:xlink="http://www.w3.org/1999/xlink" width="200" height="200"><path d="M770.901333 966.314667a96.938667 96.938667 0 0 1-22.357333-3.754667 112.981333 112.981333 0 0 0-26.965333-4.266667 122.538667 122.538667 0 0 0-27.648 4.096 105.984 105.984 0 0 1-23.04 3.584C537.770667 965.973333 477.866667 842.410667 477.866667 720.042667c0-76.970667 17.066667-206.165333 126.805333-206.165334 12.8 0 34.133333 1.706667 55.466667 3.242667s45.909333 3.413333 61.098666 3.413333 41.642667-1.877333 66.56-3.754666c21.162667-1.536 41.130667-3.072 53.077334-3.242667h1.877333c112.810667 0 121.685333 158.037333 121.685333 206.506667 0.512 118.954667-76.970667 246.272-193.536 246.272z" fill="#EA2B1C" p-id="5464"></path><path d="M843.264 521.386667c105.472 0 113.664 152.064 113.664 198.656 0 115.2-74.752 238.933333-186.197333 238.933333A91.648 91.648 0 0 1 750.933333 955.733333a121.002667 121.002667 0 0 0-28.842666-4.437333 130.730667 130.730667 0 0 0-29.354667 4.266667 100.522667 100.522667 0 0 1-21.333333 3.413333c-127.658667 0-184.832-119.466667-184.832-238.933333 0-74.069333 15.36-198.314667 119.466666-198.314667 12.629333 0 34.133333 1.706667 54.954667 3.242667s46.250667 3.584 61.610667 3.584 42.154667-1.877333 67.242666-3.754667c20.992-1.536 40.96-3.072 52.736-3.242667h1.877334m0-15.872h-2.048c-26.453333 0-90.965333 6.997333-119.466667 6.997334s-89.770667-6.656-116.565333-6.656c-100.522667 0-134.656 101.034667-134.656 214.186666 0 125.269333 62.122667 253.952 200.704 253.952 17.066667 0 34.133333-7.68 51.2-7.68s33.109333 8.021333 49.322666 8.021334c118.272 0 201.898667-128.512 201.898667-254.293334 0-112.810667-35.84-214.357333-129.536-214.357333z" fill="#231F20" p-id="5465"></path><path d="M509.098667 606.378667v22.357333c0 135.509333 51.2 271.872 162.474666 326.314667-124.074667-1.536-179.541333-117.418667-179.541333-232.448a348.672 348.672 0 0 1 17.066667-116.224z" fill="#CC231B" p-id="5466"></path><path d="M738.304 582.656h-1.194667a7.850667 7.850667 0 0 1-6.656-9.045333A598.357333 598.357333 0 0 0 597.333333 147.456a7.850667 7.850667 0 0 1 12.288-9.898667 614.4 614.4 0 0 1 135.68 438.272 7.850667 7.850667 0 0 1-6.997333 6.826667z" fill="#231F20" p-id="5467"></path><path d="M727.210667 597.333333a130.048 130.048 0 0 1-59.562667-17.066666 7.850667 7.850667 0 1 1 7.168-13.994667c60.416 31.232 89.941333 2.730667 91.306667 1.536a7.850667 7.850667 0 0 1 11.264 11.093333A71.509333 71.509333 0 0 1 727.210667 597.333333z" fill="#231F20" p-id="5468"></path><path d="M754.346667 639.488A5.802667 5.802667 0 0 0 750.933333 631.466667a5.461333 5.461333 0 0 0-6.997333 3.754666 5.802667 5.802667 0 0 0 3.584 7.168 5.461333 5.461333 0 0 0 6.826667-2.901333zM687.445333 694.272a8.533333 8.533333 0 0 0-10.752 5.802667 8.874667 8.874667 0 0 0 5.632 11.093333 8.533333 8.533333 0 0 0 10.752-5.802667 8.874667 8.874667 0 0 0-5.632-11.093333zM814.933333 621.738667a8.362667 8.362667 0 0 0-10.581333 5.632 8.874667 8.874667 0 0 0 5.461333 10.922666 8.362667 8.362667 0 0 0 10.581334-5.802666 8.874667 8.874667 0 0 0-5.461334-10.752zM819.2 596.309333a8.533333 8.533333 0 0 0 10.752-5.802666 8.874667 8.874667 0 0 0-5.632-11.093334 8.533333 8.533333 0 0 0-10.752 5.802667 8.874667 8.874667 0 0 0 5.632 11.093333zM780.288 750.933333a7.168 7.168 0 0 0-9.045333 4.949334 7.509333 7.509333 0 0 0 4.778666 9.386666 7.168 7.168 0 0 0 9.045334-4.949333 7.509333 7.509333 0 0 0-4.778667-9.386667zM797.696 702.122667a5.290667 5.290667 0 0 0-6.656 3.584 5.461333 5.461333 0 0 0 3.413333 6.826666 5.290667 5.290667 0 0 0 6.656-3.584 5.461333 5.461333 0 0 0-3.413333-6.826666zM835.072 659.626667a5.12 5.12 0 0 0-6.485333 3.584 5.461333 5.461333 0 0 0 3.413333 6.656 5.12 5.12 0 0 0 6.485333-3.413334 5.461333 5.461333 0 0 0-3.413333-6.826666zM671.232 816.469333a10.581333 10.581333 0 0 0-13.312 7.168 11.093333 11.093333 0 0 0 6.997333 13.653334 10.581333 10.581333 0 0 0 13.312-7.168 11.093333 11.093333 0 0 0-6.997333-13.653334z" fill="#FFFFFF" p-id="5469"></path><path d="M732.19949 806.644023a5.290667 5.461333 17.06 1 0 3.204416-10.442048 5.290667 5.461333 17.06 1 0-3.204416 10.442048Z" fill="#FFFFFF" p-id="5470"></path><path d="M746.496 699.733333a10.581333 10.581333 0 0 0-13.312 7.168 11.093333 11.093333 0 0 0 6.997333 13.824 10.581333 10.581333 0 0 0 13.312-7.168 11.093333 11.093333 0 0 0-6.997333-13.824z" fill="#FFFFFF" p-id="5471"></path><path d="M844.629333 883.712a7.850667 7.850667 0 0 1-5.973333-12.970667c45.568-53.418667 47.445333-93.184 47.445333-93.696a7.850667 7.850667 0 0 1 15.872 0c0 1.877333-1.706667 45.397333-51.2 103.424a7.850667 7.850667 0 0 1-6.144 3.242667zM808.96 921.6a7.850667 7.850667 0 0 1-4.949333-14.165333 81.749333 81.749333 0 0 0 15.36-15.36 7.850667 7.850667 0 0 1 12.970666 9.045333 95.232 95.232 0 0 1-18.602666 18.773333 7.850667 7.850667 0 0 1-4.778667 1.706667z" fill="#FFFFFF" p-id="5472"></path><path d="M270.165333 966.314667C153.6 966.314667 76.117333 838.997333 76.117333 720.042667c0-48.469333 8.704-206.506667 121.685334-206.506667h1.877333c11.946667 0 31.914667 1.706667 53.077333 3.242667 25.088 1.877333 51.2 3.754667 66.56 3.754666s38.570667-1.706667 61.098667-3.413333 42.666667-3.242667 55.466667-3.242667C546.133333 513.706667 563.2 642.901333 563.2 720.042667c0 122.538667-59.562667 246.101333-192.682667 246.101333a105.984 105.984 0 0 1-23.04-3.584 122.538667 122.538667 0 0 0-27.648-4.096 112.981333 112.981333 0 0 0-26.965333 4.266667 96.938667 96.938667 0 0 1-22.698667 3.584z" fill="#EA2B1C" p-id="5473"></path><path d="M197.802667 521.386667h1.877333c11.776 0 31.573333 1.706667 52.736 3.242666 25.088 1.877333 51.2 3.754667 67.242667 3.754667s38.912-1.706667 61.610666-3.584 42.325333-3.242667 54.954667-3.242667c103.424 0 119.466667 124.245333 119.466667 198.314667 0 118.613333-57.173333 238.933333-184.832 238.933333a100.522667 100.522667 0 0 1-21.333334-3.413333 130.56 130.56 0 0 0-29.354666-4.266667A121.002667 121.002667 0 0 0 290.133333 955.733333a91.648 91.648 0 0 1-20.48 3.413334c-111.274667 0-186.197333-123.221333-186.197333-238.933334 0-46.592 8.192-198.656 113.664-198.656m0-15.872C104.106667 505.514667 68.266667 607.232 68.266667 720.042667c0 125.781333 83.797333 254.293333 201.898666 254.293333 17.066667 0 32.426667-8.021333 49.322667-8.021333s34.133333 7.68 51.2 7.68c138.581333 0 200.704-128.682667 200.704-253.952 0-113.152-34.133333-214.186667-134.656-214.186667-26.794667 0-87.552 6.656-116.565333 6.656s-93.184-6.656-119.466667-6.997333z" fill="#231F20" p-id="5474"></path><path d="M531.968 606.378667v22.357333c0 135.509333-51.2 271.872-162.474667 326.314667 124.074667-1.536 179.541333-117.418667 179.541334-232.448a348.501333 348.501333 0 0 0-17.066667-116.224z" fill="#CC231B" p-id="5475"></path><path d="M302.762667 582.656a7.850667 7.850667 0 0 1-7.168-8.704c0-3.584 37.034667-351.744 307.2-456.021333a7.850667 7.850667 0 0 1 5.632 14.677333c-261.632 100.693333-297.472 439.466667-297.813334 442.88a7.850667 7.850667 0 0 1-7.850666 7.168z" fill="#231F20" p-id="5476"></path><path d="M313.856 597.333333a71.509333 71.509333 0 0 1-50.176-17.066666 7.850667 7.850667 0 0 1 11.264-11.093334c1.365333 1.365333 30.890667 29.696 91.306667-1.536a7.850667 7.850667 0 1 1 7.168 13.994667 130.048 130.048 0 0 1-59.562667 15.701333z" fill="#231F20" p-id="5477"></path><path d="M135.338667 675.157333a72.362667 70.144 90 1 0 140.288 0 72.362667 70.144 90 1 0-140.288 0Z" fill="#FFFFFF" p-id="5478"></path><path d="M166.741333 642.56a39.936 38.741333 90 1 0 77.482667 0 39.936 38.741333 90 1 0-77.482667 0Z" fill="#FEFEFE" p-id="5479"></path><path d="M385.877333 639.488a5.802667 5.802667 0 0 0-3.584-8.021333 5.461333 5.461333 0 0 0-6.997333 3.754666 5.802667 5.802667 0 0 0 3.584 7.168 5.461333 5.461333 0 0 0 6.997333-2.901333zM318.976 694.272a8.533333 8.533333 0 0 0-10.752 5.802667 8.874667 8.874667 0 0 0 5.632 11.093333 8.533333 8.533333 0 0 0 10.752-5.802667 8.874667 8.874667 0 0 0-5.632-11.093333zM446.464 621.738667a8.362667 8.362667 0 0 0-10.581333 5.632 8.874667 8.874667 0 0 0 5.461333 10.922666 8.362667 8.362667 0 0 0 10.581333-5.802666 8.874667 8.874667 0 0 0-5.461333-10.752zM450.730667 596.309333a8.533333 8.533333 0 0 0 10.069333-5.802666 8.874667 8.874667 0 0 0-5.632-11.093334 8.533333 8.533333 0 0 0-10.752 5.802667 8.874667 8.874667 0 0 0 6.314667 11.093333zM411.818667 750.933333a7.168 7.168 0 0 0-9.045334 4.949334 7.509333 7.509333 0 0 0 4.778667 9.386666 7.168 7.168 0 0 0 9.045333-4.949333 7.509333 7.509333 0 0 0-4.778666-9.386667zM429.226667 702.122667a5.290667 5.290667 0 0 0-6.656 3.584 5.461333 5.461333 0 0 0 3.413333 6.826666 5.290667 5.290667 0 0 0 6.656-3.584 5.461333 5.461333 0 0 0-3.413333-6.826666zM466.602667 659.626667a5.12 5.12 0 0 0-6.485334 3.584 5.461333 5.461333 0 0 0 3.413334 6.656 5.12 5.12 0 0 0 6.485333-3.413334 5.461333 5.461333 0 0 0-3.413333-6.826666zM302.762667 816.469333a10.581333 10.581333 0 0 0-13.312 7.168 11.093333 11.093333 0 0 0 6.997333 13.653334 10.581333 10.581333 0 0 0 13.312-7.168 11.093333 11.093333 0 0 0-6.997333-13.653334z" fill="" p-id="5480"></path><path d="M363.607021 806.810728a5.290667 5.461333 17.06 1 0 3.204416-10.442048 5.290667 5.461333 17.06 1 0-3.204416 10.442048Z" fill="" p-id="5481"></path><path d="M377.856 699.733333a10.581333 10.581333 0 0 0-13.312 7.168 11.093333 11.093333 0 0 0 6.997333 13.824 10.581333 10.581333 0 0 0 13.312-7.168 11.093333 11.093333 0 0 0-6.997333-13.824z" fill="" p-id="5482"></path><path d="M170.666667 876.714667a7.850667 7.850667 0 0 1-5.973334-2.730667c-50.176-57.514667-52.394667-101.034667-52.394666-102.4a7.850667 7.850667 0 0 1 7.68-8.192 7.850667 7.850667 0 0 1 8.192 7.509333s2.56 40.277333 48.469333 93.013334a7.850667 7.850667 0 0 1-5.973333 13.141333zM207.530667 913.237333a7.850667 7.850667 0 0 1-4.778667-1.536 94.549333 94.549333 0 0 1-18.944-18.602666 7.850667 7.850667 0 0 1 12.970667-9.216 81.408 81.408 0 0 0 15.530666 15.189333 7.850667 7.850667 0 0 1-4.778666 14.165333zM598.698667 176.981333a7.850667 7.850667 0 0 1-7.850667-7.850666c0-1.194667 1.365333-121.685333 117.589333-151.722667a7.850667 7.850667 0 1 1 3.925334 15.36c-104.448 26.965333-105.813333 135.338667-105.813334 136.533333a7.850667 7.850667 0 0 1-7.850666 7.68z" fill="#231F20" p-id="5483"></path><path d="M604.330667 143.018667S269.312 66.56 227.669333 389.290667a268.8 268.8 0 0 0 307.2-57.685334C612.693333 256 612.693333 186.197333 604.330667 143.018667z" fill="#84A316" p-id="5484"></path><path d="M343.210667 422.058667a283.989333 283.989333 0 0 1-119.466667-25.770667l-4.949333-2.56v-5.461333c12.117333-94.378667 50.346667-164.693333 113.322666-208.725334 113.664-79.36 266.24-45.738667 273.066667-44.373333l5.12 1.194667 1.024 5.12c13.482667 69.973333-10.410667 136.533333-71.338667 195.754666a274.773333 274.773333 0 0 1-196.778666 84.821334z m-106.837334-37.376A258.56 258.56 0 0 0 529.066667 325.973333c55.978667-55.296 78.336-112.981333 68.266666-176.298666-27.306667-5.12-158.549333-24.576-256 43.008-57.002667 40.448-92.672 104.96-104.96 192z" fill="#231F20" p-id="5485"></path><path d="M424.277333 230.912a297.472 297.472 0 0 0 21.333334-80.725333c-88.064 15.36-187.733333 69.290667-209.408 231.424a204.8 204.8 0 0 0 34.133333 12.8 290.133333 290.133333 0 0 0 153.941333-163.498667z" fill="#C8FFD6" p-id="5486"></path><path d="M514.048 225.109333a7.850667 7.850667 0 0 1-4.778667-14.165333l94.72-73.386667a7.850667 7.850667 0 1 1 10.410667 12.629334l-94.72 73.386666a7.850667 7.850667 0 0 1-5.632 1.536zM450.901333 274.090667a7.850667 7.850667 0 0 1-4.778666-14.165334L477.866667 235.52a7.850667 7.850667 0 0 1 9.728 12.458667L455.850667 273.066667a7.850667 7.850667 0 0 1-4.949334 1.024z" fill="#231F20" p-id="5487"></path></svg>