<?xml version="1.0" standalone="no"?><!DOCTYPE svg PUBLIC "-//W3C//DTD SVG 1.1//EN" "http://www.w3.org/Graphics/SVG/1.1/DTD/svg11.dtd"><svg t="1710213251112" class="icon" viewBox="0 0 1024 1024" version="1.1" xmlns="http://www.w3.org/2000/svg" p-id="5313" xmlns:xlink="http://www.w3.org/1999/xlink" width="200" height="200"><path d="M558.250667 176.64s-91.989333 8.704-116.224 123.733333a323.072 323.072 0 0 1-71.168 149.845334c-13.482667 20.309333-216.064 293.888-22.016 457.557333 0 0 42.325333 66.048 234.496 55.978667a434.517333 434.517333 0 0 1 76.970666 1.024c24.234667 4.608 206.165333-28.672 207.701334-234.837334 0 0-3.413333-106.837333-41.642667-178.858666A1756.16 1756.16 0 0 1 709.12 273.066667a143.189333 143.189333 0 0 0-150.869333-96.426667z" fill="#C1CB1A" p-id="5314"></path><path d="M665.6 972.8a37.717333 37.717333 0 0 1-6.656 0 430.592 430.592 0 0 0-74.922667 0c-183.466667 8.192-234.154667-51.2-240.810666-59.733333C170.666667 768 299.008 540.501333 361.813333 449.536l2.56-3.754667c2.389333-3.754667 5.461333-7.68 9.045334-12.288a299.52 299.52 0 0 0 60.928-134.826666c25.088-119.466667 122.197333-129.877333 123.221333-130.048a151.381333 151.381333 0 0 1 158.890667 102.4 1755.306667 1755.306667 0 0 0 116.736 276.138666c38.741333 72.874667 42.496 177.834667 42.666666 182.272 0 81.066667-29.354667 147.114667-83.114666 191.317334A228.352 228.352 0 0 1 665.6 972.8z m-41.642667-18.261333a225.450667 225.450667 0 0 1 37.888 2.389333 200.874667 200.874667 0 0 0 121.173334-48.128c51.2-41.813333 76.8-102.4 77.312-179.029333 0 0-3.754667-105.642667-40.789334-175.274667a1770.154667 1770.154667 0 0 1-117.76-278.528 136.533333 136.533333 0 0 0-142.848-91.648c-4.778667 0-86.698667 10.752-109.397333 117.589333A313.514667 313.514667 0 0 1 385.706667 443.733333c-3.242667 4.266667-6.144 8.021333-8.362667 11.264l-2.730667 3.925334c-60.586667 87.552-183.637333 305.834667-20.650666 443.733333l1.536 1.706667s43.690667 61.098667 227.669333 51.370666c1.194667 0 20.309333-1.194667 40.789333-1.194666z" fill="#231F20" p-id="5315"></path><path d="M582.826667 238.933333a7.850667 7.850667 0 0 1-7.509334-5.461333c0-1.194667-34.133333-117.248 68.266667-180.053333a7.850667 7.850667 0 0 1 8.192 13.312c-92.672 56.490667-62.122667 161.109333-61.781333 162.133333a7.850667 7.850667 0 0 1-5.12 9.728z" fill="#231F20" p-id="5316"></path><path d="M587.605333 107.690667S426.666667-65.194667 277.845333 102.4a185.002667 185.002667 0 0 0 197.461334 85.333333c73.728-12.8 100.352-52.224 112.298666-80.042666z" fill="#84A316" p-id="5317"></path><path d="M435.712 200.021333a194.56 194.56 0 0 1-164.693333-93.696L268.458667 102.4l3.584-4.096c43.861333-49.664 93.184-75.264 146.944-75.946667h2.56c95.232 0 168.789333 77.482667 171.861333 80.725334l3.413333 3.754666-2.048 4.608c-19.626667 45.909333-59.392 74.581333-117.930666 85.333334a225.450667 225.450667 0 0 1-41.130667 3.242666z m-148.138667-96.426666a175.786667 175.786667 0 0 0 186.368 77.312c51.2-9.557333 85.333333-32.938667 104.277334-71.509334-15.701333-15.189333-79.701333-72.192-156.842667-72.192h-2.218667c-47.616 0.682667-91.818667 23.04-131.584 66.389334z" fill="#231F20" p-id="5318"></path><path d="M451.072 88.234667A204.8 204.8 0 0 0 494.933333 51.2c-56.149333-25.258667-134.144-34.133333-208.725333 51.2a140.629333 140.629333 0 0 0 14.336 20.309333 199.168 199.168 0 0 0 150.528-34.474666z" fill="#C8FFD6" p-id="5319"></path><path d="M496.298667 121.514667a7.850667 7.850667 0 0 1 0-15.530667l82.261333-5.290667a7.850667 7.850667 0 1 1 1.024 15.530667l-82.261333 5.290667zM441.514667 124.928a7.850667 7.850667 0 0 1 0-15.530667l27.477333-1.706666a7.850667 7.850667 0 1 1 1.024 15.530666l-27.477333 1.706667zM580.266667 249.344a57.514667 57.514667 0 0 1-35.84-13.141333 7.850667 7.850667 0 0 1 10.069333-11.776 38.058667 38.058667 0 0 0 49.322667 0 7.850667 7.850667 0 1 1 10.24 11.776 51.2 51.2 0 0 1-33.792 13.141333z" fill="#231F20" p-id="5320"></path><path d="M489.130667 525.824m-90.965334 0a90.965333 90.965333 0 1 0 181.930667 0 90.965333 90.965333 0 1 0-181.930667 0Z" fill="#FFFFFF" p-id="5321"></path><path d="M489.130667 485.034667m-50.176 0a50.176 50.176 0 1 0 100.352 0 50.176 50.176 0 1 0-100.352 0Z" fill="#FEFEFE" p-id="5322"></path><path d="M644.608 638.293333a7.68 7.68 0 0 0-4.778667-9.557333 7.338667 7.338667 0 0 0-9.216 4.949333 7.68 7.68 0 0 0 4.778667 9.557334 7.338667 7.338667 0 0 0 9.216-4.949334zM555.690667 711.168a11.434667 11.434667 0 0 0-14.336 7.68 11.946667 11.946667 0 0 0 7.509333 14.848 11.434667 11.434667 0 0 0 14.336-7.68 11.776 11.776 0 0 0-7.509333-14.848zM724.992 614.4a11.264 11.264 0 0 0-14.165333 7.68 11.776 11.776 0 0 0 7.338666 14.506667 11.264 11.264 0 0 0 14.165334-7.68 11.605333 11.605333 0 0 0-7.338667-14.506667zM730.794667 580.266667a11.434667 11.434667 0 0 0 14.336-7.68 11.946667 11.946667 0 0 0-7.509334-14.848 11.264 11.264 0 0 0-14.336 7.68 11.776 11.776 0 0 0 7.509334 14.848zM679.082667 786.090667a9.557333 9.557333 0 0 0-12.117334 6.485333 10.069333 10.069333 0 0 0 6.314667 12.458667 9.557333 9.557333 0 0 0 12.117333-6.485334 10.069333 10.069333 0 0 0-6.314666-12.458666zM702.122667 721.578667a6.997333 6.997333 0 0 0-8.874667 4.778666 7.338667 7.338667 0 0 0 4.608 9.216 6.997333 6.997333 0 0 0 8.874667-4.778666 7.338667 7.338667 0 0 0-4.608-9.216zM751.786667 665.6a6.826667 6.826667 0 0 0-8.704 4.608 7.168 7.168 0 0 0 4.437333 8.874667 6.826667 6.826667 0 0 0 8.704-4.608 7.168 7.168 0 0 0-4.437333-8.874667zM534.016 873.472a13.994667 13.994667 0 0 0-17.066667 9.557333 14.677333 14.677333 0 0 0 9.216 18.261334 13.994667 13.994667 0 0 0 17.066667-9.557334 14.677333 14.677333 0 0 0-9.216-18.261333zM619.008 846.506667a6.997333 6.997333 0 0 0-8.874667 4.778666 7.338667 7.338667 0 0 0 4.608 9.045334 6.997333 6.997333 0 0 0 8.874667-4.778667 7.338667 7.338667 0 0 0-4.608-9.045333zM634.026667 716.8a13.994667 13.994667 0 0 0-17.066667 9.557333 14.677333 14.677333 0 0 0 9.216 18.261334 13.994667 13.994667 0 0 0 17.066667-9.557334 14.677333 14.677333 0 0 0-9.216-18.261333z" fill="" p-id="5323"></path><path d="M471.210667 660.821333a6.997333 6.997333 0 0 0 4.437333 8.704 6.656 6.656 0 0 0 8.533333-4.608 6.997333 6.997333 0 0 0-4.437333-8.704 6.656 6.656 0 0 0-8.533333 4.608zM552.277333 594.432a10.410667 10.410667 0 0 0 13.141334-6.997333 10.922667 10.922667 0 0 0-6.826667-13.482667 10.410667 10.410667 0 0 0-12.458667 6.314667 10.752 10.752 0 0 0 6.144 14.165333zM397.824 682.666667a10.24 10.24 0 0 0 12.970667-6.997334 10.752 10.752 0 0 0-6.656-13.312 10.24 10.24 0 0 0-12.970667 6.997334 10.752 10.752 0 0 0 6.656 13.312zM392.533333 713.216a10.410667 10.410667 0 0 0-13.141333 6.997333 10.922667 10.922667 0 0 0 6.826667 13.482667 10.410667 10.410667 0 0 0 13.141333-6.997333 10.752 10.752 0 0 0-6.826667-13.482667zM439.808 525.824a8.704 8.704 0 0 0 10.922667-5.973333 9.045333 9.045333 0 0 0-5.802667-11.434667 8.704 8.704 0 0 0-10.922667 5.973333 9.045333 9.045333 0 0 0 5.802667 11.434667zM418.645333 584.874667A6.485333 6.485333 0 0 0 426.666667 580.266667a6.656 6.656 0 0 0-4.266667-8.362667 6.314667 6.314667 0 0 0-8.021333 4.266667 6.656 6.656 0 0 0 4.266666 8.704zM373.248 636.245333a6.314667 6.314667 0 0 0 7.850667-4.266666 6.485333 6.485333 0 0 0-4.096-8.192 6.314667 6.314667 0 0 0-7.850667 4.266666 6.485333 6.485333 0 0 0 4.096 8.192zM572.074667 446.122667a12.8 12.8 0 0 0 16.213333-8.704 13.312 13.312 0 0 0-8.362667-17.066667 12.8 12.8 0 0 0-16.213333 8.704 13.312 13.312 0 0 0 8.362667 17.066667zM494.933333 470.698667a6.314667 6.314667 0 0 0 8.021334-4.266667 6.656 6.656 0 0 0-4.266667-8.362667 6.485333 6.485333 0 0 0-8.021333 4.266667 6.656 6.656 0 0 0 4.266666 8.362667zM480.938667 588.8a12.8 12.8 0 0 0 16.213333-8.704 13.312 13.312 0 0 0-8.362667-17.066667 12.8 12.8 0 0 0-16.213333 8.704 13.312 13.312 0 0 0 8.362667 17.066667z" fill="#FFFFFF" p-id="5324"></path><path d="M819.2 554.325333q-25.088-47.104-47.274667-96.426666 6.314667 23.04 12.970667 46.08c32.426667 110.250667 7.168 260.949333 6.997333 261.973333a347.818667 347.818667 0 0 1-99.84 187.733333c58.026667-13.482667 166.741333-68.266667 167.936-224.256 0.853333-0.512-2.901333-105.301333-40.789333-175.104z" fill="#A5A516" p-id="5325"></path></svg>