<?xml version="1.0" standalone="no"?><!DOCTYPE svg PUBLIC "-//W3C//DTD SVG 1.1//EN" "http://www.w3.org/Graphics/SVG/1.1/DTD/svg11.dtd"><svg t="1710212416517" class="icon" viewBox="0 0 1024 1024" version="1.1" xmlns="http://www.w3.org/2000/svg" p-id="4641" xmlns:xlink="http://www.w3.org/1999/xlink" width="200" height="200"><path d="M283.01 847.48c-32.58 0.18-63.88-12.66-86.96-35.65-40.22-40.22-46.85-102.04-18.58-151.06-60.46-127.01-27.16-288.97 84.51-400.63 110.59-110.59 270.55-144.35 397-86.21a128.811 128.811 0 0 1 78.47-28.57c33.93-0.22 65.69 12.06 89.35 35.72 23.68 23.66 36.36 55.39 35.72 89.35a129.144 129.144 0 0 1-38.25 89.23c-1.69 1.69-3.43 3.34-5.22 4.94 31.43 118.43-7.94 252.96-103.79 348.8C619.67 808.99 484.7 848.56 366.23 817a129.27 129.27 0 0 1-83.22 30.48z m244.7-639.18c-77.81 0-158.82 33.39-221.51 96.06-97.14 97.16-123.91 238.34-65.1 343.34 6.27 11.2 5.06 25.1-3.05 35.04-21.14 25.94-20.19 62.43 2.24 84.85 24.15 24.15 64.57 22.99 90.14-2.55 1.08-1.08 2.05-2.24 3.02-3.36l0.39-0.45a31.287 31.287 0 0 1 32.76-9.4l0.8 0.25c100.43 33.67 219.6 1.13 303.62-82.91 85.05-85.05 117.3-205.28 82.15-306.28-4.88-13.99 0.74-29.48 13.45-37.09l0.02-0.02a69.78 69.78 0 0 0 13.42-10.34 67.088 67.088 0 0 0 19.94-46.2c0.46-16.41-5.83-32.3-17.4-43.94-11.54-11.52-27.12-17.11-43.96-17.4-17.39 0.4-33.94 7.54-46.16 19.92-1.38 1.39-2.64 2.85-3.88 4.32-9.67 11.41-26.07 14.38-39.13 7.07h-0.02c-37.23-20.83-79-30.91-121.74-30.91z" fill="#D26500" p-id="4642"></path><path d="M253.04 524.28c11.71 5.97 26.04 1.37 32.07-10.3 5.61-10.85 11.84-21.74 18.69-32.67 7.05-11.22 3.67-26.02-7.54-33.07-0.62-0.39-1.25-0.75-1.9-1.08l-0.03-0.02c-10.94-5.64-24.37-2.03-31.02 8.32-7.51 11.96-14.4 23.99-20.63 35.98-6.25 11.8-1.75 26.42 10.04 32.67 0.1 0.05 0.21 0.11 0.32 0.17zM349.44 347.58c-15 15.03-29.24 30.81-42.64 47.27-8.11 9.92-6.65 24.53 3.27 32.65 1.3 1.06 2.71 1.98 4.21 2.74l1.7 0.86c9.81 4.88 21.7 2.27 28.57-6.27 12.06-14.67 25.1-29.1 39.06-43.07 48.4-48.4 102.54-85.82 153.52-108.54 12.06-5.34 17.51-19.44 12.17-31.5-2.19-4.95-6-9.02-10.81-11.52a23.84 23.84 0 0 0-20.7-0.86c-56.76 25.04-115.57 65.48-168.35 118.24z" fill="#EBB85D" p-id="4643"></path><path d="M209.81 842.98a122.25 122.25 0 0 0 86.95 35.67 129.28 129.28 0 0 0 83.22-30.49c118.46 31.56 253.44-8.01 349.02-103.6 95.86-95.83 135.22-230.38 103.8-348.8 1.78-1.61 3.52-3.26 5.21-4.94a129.144 129.144 0 0 0 38.25-89.23c0.86-33.42-12.04-65.73-35.7-89.35-23.67-23.66-55.42-35.92-89.37-35.72-28.6 0.54-56.2 10.59-78.46 28.57-126.46-58.13-286.42-24.38-397.01 86.21-111.66 111.66-144.96 273.6-84.5 400.61-28.27 49.03-21.63 110.84 18.59 151.07z m110.16-507.47c62.68-62.68 143.7-96.05 221.51-96.05 42.72 0 84.51 10.07 121.72 30.88 13.05 7.32 29.46 4.35 39.13-7.07h0.02c1.23-1.47 2.49-2.91 3.86-4.3a67.022 67.022 0 0 1 46.18-19.94c16.84 0.3 32.4 5.88 43.94 17.42a59.902 59.902 0 0 1 17.41 43.93 66.959 66.959 0 0 1-19.94 46.19 68.742 68.742 0 0 1-13.42 10.35l-0.02 0.02c-12.7 7.62-18.31 23.1-13.45 37.09 35.17 101 2.92 221.23-82.13 306.28-84.02 84.04-203.21 116.58-303.62 82.91l-0.81-0.25c-11.81-3.61-24.64 0.08-32.75 9.4l-0.39 0.45c-0.98 1.14-1.95 2.28-3.03 3.36-25.55 25.54-65.99 26.69-90.14 2.55-22.43-22.41-23.38-58.89-2.22-84.84v-0.02a31.256 31.256 0 0 0 3.03-35.04c-58.81-104.98-32.04-246.16 65.12-343.32z" fill="#EBB85D" opacity=".2" p-id="4644"></path><path d="M266.79 555.44c11.71 5.96 26.03 1.35 32.06-10.32 5.61-10.85 11.84-21.74 18.69-32.67 7.05-11.21 3.68-26.01-7.53-33.06-0.62-0.39-1.26-0.75-1.92-1.09l-0.03-0.02c-10.94-5.63-24.37-2.03-31.02 8.32-7.49 11.98-14.37 23.98-20.63 36-6.24 11.82-1.71 26.46 10.11 32.7 0.09 0.05 0.18 0.1 0.27 0.14zM328.02 461.4l1.72 0.86c9.81 4.88 21.69 2.28 28.55-6.26 12.07-14.68 25.1-29.1 39.06-43.08 48.41-48.4 102.55-85.82 153.53-108.53 12.12-5.34 17.62-19.5 12.28-31.62-5.34-12.12-19.5-17.62-31.62-12.28-56.77 25.04-115.56 65.48-168.36 118.25A619.567 619.567 0 0 0 320.55 426c-8.12 9.91-6.67 24.52 3.23 32.64 1.32 1.07 2.73 1.99 4.24 2.76z" fill="#EBB85D" opacity=".2" p-id="4645"></path></svg>