<?xml version="1.0" standalone="no"?><!DOCTYPE svg PUBLIC "-//W3C//DTD SVG 1.1//EN" "http://www.w3.org/Graphics/SVG/1.1/DTD/svg11.dtd"><svg t="1710213248340" class="icon" viewBox="0 0 1024 1024" version="1.1" xmlns="http://www.w3.org/2000/svg" p-id="5163" xmlns:xlink="http://www.w3.org/1999/xlink" width="200" height="200"><path d="M852.48 261.12l-14.336 26.453333s-8.704 93.354667-17.066667 96.256a546.133333 546.133333 0 0 0-83.114666 89.258667C714.752 505.002667 565.248 648.533333 381.098667 600.746667s-233.301333-119.466667-263.338667-119.466667-60.416 29.866667-60.416 29.866667-66.56 201.728 324.266667 294.058666 523.946667-250.709333 523.946666-250.709333 30.72-120.32-13.482666-153.6c0 0-1.365333-83.285333 19.968-108.032s18.090667-70.826667 18.090666-70.826667l-40.618666-17.92z" fill="#FCC300" p-id="5164"></path><path d="M509.44 827.733333a561.664 561.664 0 0 1-129.194667-15.872C219.477333 773.973333 114.858667 713.386667 69.290667 631.466667a162.645333 162.645333 0 0 1-18.944-123.562667v-1.706667l1.365333-1.194666c1.365333-1.365333 32.768-31.914667 65.365333-31.914667 12.458667 0 25.770667 9.045333 45.738667 22.528a635.562667 635.562667 0 0 0 219.477333 97.621333c180.906667 46.08 328.021333-94.890667 349.525334-124.416a568.490667 568.490667 0 0 1 85.333333-90.965333 513.365333 513.365333 0 0 0 13.994667-90.794667v-1.536l15.36-28.330666 40.96-63.829334 51.2 22.357334v4.437333c0 2.048 3.242667 49.493333-19.968 76.288-15.189333 17.066667-18.261333 74.752-18.261334 99.498667 43.349333 39.082667 14.506667 154.624 13.141334 159.573333v0.853333a473.429333 473.429333 0 0 1-117.248 162.816 416.938667 416.938667 0 0 1-286.890667 108.544zM64 514.56a153.6 153.6 0 0 0 18.602667 110.250667c43.008 76.458667 147.114667 136.533333 301.056 172.373333 159.744 37.717333 294.912 7.68 401.92-89.088a467.456 467.456 0 0 0 113.152-156.672c8.192-32.597333 22.016-120.832-10.752-145.92l-2.901334-2.218667v-3.584c0-8.874667 0-86.869333 21.845334-112.981333a100.010667 100.010667 0 0 0 17.066666-60.928l-30.549333-13.482667-34.133333 52.565334-13.824 25.258666c-9.045333 96.597333-17.066667 99.498667-21.845334 101.034667A593.92 593.92 0 0 0 744.106667 477.866667c-27.306667 37.205333-178.005333 177.834667-364.714667 130.218666a648.533333 648.533333 0 0 1-224.256-99.84 98.133333 98.133333 0 0 0-37.376-19.968 94.378667 94.378667 0 0 0-53.76 26.282667z m752.298667-136.533333z" fill="#231F20" p-id="5165"></path><path d="M264.021333 716.8c-2.218667 0-44.885333 0-102.4-47.445333a7.509333 7.509333 0 1 1 9.386667-11.776c54.272 43.690667 93.184 44.202667 93.525333 44.202666a7.509333 7.509333 0 0 1 0 15.018667zM145.578667 653.653333a7.509333 7.509333 0 0 1-4.096-1.194666 93.184 93.184 0 0 1-18.944-17.066667 7.509333 7.509333 0 1 1 11.605333-9.557333 80.213333 80.213333 0 0 0 15.530667 14.848 7.509333 7.509333 0 0 1-4.096 13.824z" fill="#231F20" p-id="5166"></path><path d="M433.493333 756.906667a128.512 128.512 0 0 1-50.005333-8.021334 7.509333 7.509333 0 0 1 6.314667-13.653333S426.666667 750.933333 493.226667 733.866667a7.509333 7.509333 0 0 1 3.754666 14.506666 256 256 0 0 1-63.488 8.533334z" fill="#FFFFFF" p-id="5167"></path><path d="M381.952 804.522667c391.168 92.330667 523.946667-250.709333 523.946667-250.709334a396.117333 396.117333 0 0 0 9.216-56.490666c-54.954667 111.104-210.944 308.906667-619.008 282.794666 25.770667 8.874667 54.272 16.896 85.845333 24.405334z" fill="#280300" p-id="5168"></path><path d="M870.4 384.341333s24.234667-95.402667-2.730667-138.24l-11.434666 17.066667-13.653334 25.258667c-9.045333 95.573333-17.066667 98.474667-20.309333 99.498666a578.218667 578.218667 0 0 0-80.725333 87.552 398.848 398.848 0 0 1-119.466667 94.72 336.896 336.896 0 0 1-242.346667 34.133334 646.997333 646.997333 0 0 1-223.232-98.133334 97.450667 97.450667 0 0 0-38.741333-20.48 62.464 62.464 0 0 0-28.16 7.850667c43.52 49.152 123.904 99.84 271.36 134.656C741.546667 718.165333 870.4 384.341333 870.4 384.341333z" fill="#F9D97D" p-id="5169"></path><path d="M858.794667 270.165333l-7.338667 29.184s14.677333 92.501333 7.338667 97.450667a546.133333 546.133333 0 0 0-58.538667 107.178667c-15.189333 36.352-124.074667 211.797333-314.026667 211.797333s-256-58.368-284.842666-51.2-51.2 43.861333-51.2 43.861333-14.677333 211.797333 387.242666 204.8 445.44-372.906667 445.44-372.906666 0-124.245333-51.2-146.090667c0 0-21.845333-80.384-7.338666-109.568s0-73.045333 0-73.045333L880.64 204.8z" fill="#FCC300" p-id="5170"></path><path d="M380.757333 859.477333A221.866667 221.866667 0 0 1 290.133333 836.266667a7.509333 7.509333 0 1 1 6.314667-13.653334c62.976 28.672 101.205333 19.626667 102.4 19.626667a7.509333 7.509333 0 0 1 3.754667 14.506667 89.258667 89.258667 0 0 1-21.845334 2.730666zM269.141333 825.514667h-2.389333a93.013333 93.013333 0 0 1-22.698667-12.629334 7.509333 7.509333 0 0 1 8.874667-12.117333 80.042667 80.042667 0 0 0 18.773333 10.410667 7.509333 7.509333 0 0 1-2.389333 14.677333z" fill="#231F20" p-id="5171"></path><path d="M536.746667 859.477333a69.802667 69.802667 0 0 1-11.605334 0 7.509333 7.509333 0 0 1 2.730667-14.848s39.424 6.144 100.010667-26.965333a7.509333 7.509333 0 0 1 7.168 13.141333 208.213333 208.213333 0 0 1-98.304 28.672z" fill="#F7D47C" p-id="5172"></path><path d="M537.258667 912.896C938.666667 905.728 982.869333 540.330667 982.869333 540.330667a396.458667 396.458667 0 0 0-4.949333-57.002667c-25.770667 121.344-128 351.402667-529.066667 426.666667 26.453333 2.730667 56.149333 3.584 88.405334 2.901333z" fill="#D89F00" p-id="5173"></path><path d="M907.093333 384.853333s0-98.474667-36.864-133.290666l-6.656 20.138666-6.997333 27.818667c15.018667 94.890667 7.68 99.669333 4.949333 101.376a577.877333 577.877333 0 0 0-56.490666 104.789333 398.848 398.848 0 0 1-92.672 121.514667 336.896 336.896 0 0 1-226.304 93.525333 646.997333 646.997333 0 0 1-240.981334-41.130666 97.450667 97.450667 0 0 0-42.666666-10.24 62.464 62.464 0 0 0-25.258667 14.506666c54.272 36.864 144.896 66.048 296.277333 63.317334 390.997333-6.997333 433.664-362.325333 433.664-362.325334z" fill="#F7D47C" p-id="5174"></path><path d="M516.949333 920.746667c-153.6 0-263.68-32.768-325.290666-97.792a162.816 162.816 0 0 1-48.981334-115.029334v-1.877333l0.853334-1.536c1.024-1.536 23.893333-39.253333 55.808-47.274667a97.450667 97.450667 0 0 1 49.834666 10.581334 635.562667 635.562667 0 0 0 237.056 40.448c185.344 0 293.546667-173.056 307.2-207.189334A569.173333 569.173333 0 0 1 853.333333 392.533333a514.218667 514.218667 0 0 0-8.874666-91.477333v-1.536l7.850666-31.232 23.893334-71.850667 54.613333 9.045334 1.365333 4.266666c0 1.877333 15.36 47.104 0 78.848-10.410667 20.821333 0 76.970667 6.997334 100.864C989.866667 416.085333 989.866667 535.210667 989.866667 540.330667v0.853333a473.258667 473.258667 0 0 1-73.386667 186.88c-56.832 85.333333-168.789333 187.733333-379.562667 192.341333zM157.525333 710.656a153.6 153.6 0 0 0 45.226667 102.4c60.586667 63.317333 176.128 95.402667 334.336 92.501333 163.84-2.901333 287.232-65.194667 367.104-185.173333a468.650667 468.650667 0 0 0 71.168-180.394667c0-34.133333-8.533333-122.368-46.592-138.752l-3.413333-1.365333-1.024-3.584c-2.389333-8.533333-22.186667-83.968-6.826667-114.858667a99.669333 99.669333 0 0 0 0-62.976l-32.938667-5.461333-19.797333 59.392-6.826667 27.477333c15.018667 95.914667 7.68 100.693333 3.754667 103.424a594.090667 594.090667 0 0 0-55.637333 103.594667c-17.066667 43.008-128.341333 216.576-321.024 216.576A648.533333 648.533333 0 0 1 244.224 682.666667a97.962667 97.962667 0 0 0-41.130667-10.069334 94.037333 94.037333 0 0 0-45.568 38.058667z m697.173334-320.170667z" fill="#231F20" p-id="5175"></path></svg>