<?xml version="1.0" standalone="no"?><!DOCTYPE svg PUBLIC "-//W3C//DTD SVG 1.1//EN" "http://www.w3.org/Graphics/SVG/1.1/DTD/svg11.dtd"><svg t="1710213264393" class="icon" viewBox="0 0 1024 1024" version="1.1" xmlns="http://www.w3.org/2000/svg" p-id="5774" xmlns:xlink="http://www.w3.org/1999/xlink" width="200" height="200"><path d="M403.626667 249.514667S187.733333 264.192 138.24 396.970667 63.658667 678.058667 146.602667 802.133333s199.168 173.738667 340.138666 148.821334S768 828.586667 785.066667 687.616s-24.576-458.581333-307.2-438.101333z" fill="#FC861D" p-id="5775"></path><path d="M698.368 334.848a659.797333 659.797333 0 0 1 34.133333 290.133333c-19.114667 162.645333-181.76 276.992-344.405333 305.664a453.802667 453.802667 0 0 1-79.872 7.168 334.336 334.336 0 0 0 177.664 12.970667C627.712 926.208 768 827.050667 785.066667 686.08c10.752-90.112-2.218667-251.050667-86.698667-351.232z" fill="#CC6A19" p-id="5776"></path><path d="M416.768 965.12c-113.322667 0-205.994667-53.077333-276.309333-158.549333s-73.386667-240.469333-9.045334-412.16c51.2-135.509333 262.826667-151.552 271.701334-152.234667H477.866667c87.893333-6.314667 160.085333 19.114667 214.357333 75.776 101.034667 105.642667 109.397333 288.426667 99.84 370.346667-17.066667 151.893333-170.666667 246.442667-304.64 270.165333a409.6 409.6 0 0 1-70.656 6.656zM403.968 256c-8.021333 0-212.138667 17.066667-258.901333 142.848-62.634667 167.594667-59.733333 298.154667 7.509333 399.701333 80.896 121.344 193.024 170.666667 332.8 145.749334C614.4 921.6 761.173333 831.146667 778.069333 686.762667c9.386667-79.530667 1.365333-256.853333-95.914666-358.4-51.2-53.418667-119.466667-77.482667-203.264-71.338667z" fill="#231F20" p-id="5777"></path><path d="M518.901947 554.195148m-2.365967 7.485664a7.850667 7.850667 0 1 0 4.731935-14.971328 7.850667 7.850667 0 1 0-4.731935 14.971328Z" fill="#D34600" p-id="5778"></path><path d="M428.018968 643.497956m-3.64577 11.55587a12.117333 12.117333 0 1 0 7.291539-23.11174 12.117333 12.117333 0 1 0-7.291539 23.11174Z" fill="#D34600" p-id="5779"></path><path d="M608.637473 543.935287m-3.594421 11.393111a11.946667 11.946667 0 1 0 7.188841-22.786223 11.946667 11.946667 0 1 0-7.188841 22.786223Z" fill="#D34600" p-id="5780"></path><path d="M621.97443 485.840296m-3.649803 11.554596a12.117333 12.117333 0 1 0 7.299606-23.109193 12.117333 12.117333 0 1 0-7.299606 23.109193Z" fill="#D34600" p-id="5781"></path><path d="M560.092222 719.140511m-3.084341 9.764448a10.24 10.24 0 1 0 6.168681-19.528896 10.24 10.24 0 1 0-6.168681 19.528896Z" fill="#D34600" p-id="5782"></path><path d="M585.54106 649.91059m-2.263099 7.1602a7.509333 7.509333 0 1 0 4.526199-14.3204 7.509333 7.509333 0 1 0-4.526199 14.3204Z" fill="#D34600" p-id="5783"></path><path d="M638.670462 591.579494m-2.208001 6.998626a7.338667 7.338667 0 1 0 4.416002-13.997251 7.338667 7.338667 0 1 0-4.416002 13.997251Z" fill="#D34600" p-id="5784"></path><path d="M404.215702 814.048549m-4.5187 14.322768a15.018667 15.018667 0 1 0 9.0374-28.645537 15.018667 15.018667 0 1 0-9.0374 28.645537Z" fill="#D34600" p-id="5785"></path><path d="M497.044173 779.076699m-2.263099 7.1602a7.509333 7.509333 0 1 0 4.526198-14.320401 7.509333 7.509333 0 1 0-4.526198 14.320401Z" fill="#D34600" p-id="5786"></path><path d="M510.621617 652.713923m-4.526199 14.3204a15.018667 15.018667 0 1 0 9.052398-28.640801 15.018667 15.018667 0 1 0-9.052398 28.640801Z" fill="#D34600" p-id="5787"></path><path d="M325.261604 583.314072m-5.839852 2.820581a6.485333 6.485333 0 1 0 11.679705-5.641161 6.485333 6.485333 0 1 0-11.679705 5.641161Z" fill="#FFFFFF" p-id="5788"></path><path d="M329.19095 479.702848m-8.912707 4.306652a9.898667 9.898667 0 1 0 17.825414-8.613304 9.898667 9.898667 0 1 0-17.825414 8.613304Z" fill="#FFFFFF" p-id="5789"></path><path d="M277.816805 639.60257m-8.755343 4.240042a9.728 9.728 0 1 0 17.510686-8.480083 9.728 9.728 0 1 0-17.510686 8.480083Z" fill="#FFFFFF" p-id="5790"></path><path d="M302.460053 681.572659m-8.910451 4.311318a9.898667 9.898667 0 1 0 17.820902-8.622637 9.898667 9.898667 0 1 0-17.820902 8.622637Z" fill="#FFFFFF" p-id="5791"></path><path d="M208.659499 508.811564m-7.527159 3.643635a8.362667 8.362667 0 1 0 15.054318-7.287269 8.362667 8.362667 0 1 0-15.054318 7.287269Z" fill="#FFFFFF" p-id="5792"></path><path d="M232.381867 564.099787m-5.530624 2.675991a6.144 6.144 0 1 0 11.061249-5.351981 6.144 6.144 0 1 0-11.061249 5.351981Z" fill="#FFFFFF" p-id="5793"></path><path d="M233.525006 628.250915m-5.379265 2.596965a5.973333 5.973333 0 1 0 10.75853-5.193929 5.973333 5.973333 0 1 0-10.75853 5.193929Z" fill="#FFFFFF" p-id="5794"></path><path d="M247.982542 365.311841m-11.061249 5.351981a12.288 12.288 0 1 0 22.122499-10.703962 12.288 12.288 0 1 0-22.122499 10.703962Z" fill="#FFFFFF" p-id="5795"></path><path d="M212.706548 438.174558m-5.531092 2.675025a6.144 6.144 0 1 0 11.062183-5.350051 6.144 6.144 0 1 0-11.062183 5.350051Z" fill="#FFFFFF" p-id="5796"></path><path d="M275.246501 520.59695m-11.063118 5.34812a12.288 12.288 0 1 0 22.126235-10.696239 12.288 12.288 0 1 0-22.126235 10.696239Z" fill="#FFFFFF" p-id="5797"></path><path d="M279.893333 423.082667m-98.133333 0a98.133333 98.133333 0 1 0 196.266667 0 98.133333 98.133333 0 1 0-196.266667 0Z" fill="#F9DEC7" p-id="5798"></path><path d="M279.893333 379.221333m-54.101333 0a54.101333 54.101333 0 1 0 108.202667 0 54.101333 54.101333 0 1 0-108.202667 0Z" fill="#F4EDE9" p-id="5799"></path><path d="M859.477333 354.816h-48.64A418.986667 418.986667 0 0 1 479.914667 187.733333l-28.16-29.354666a7.168 7.168 0 0 1 5.12-12.288h0.853333c13.312 0 325.973333 1.877333 458.581333 167.082666 28.16 5.12 43.690667 12.117333 45.909334 20.48a10.752 10.752 0 0 1-4.096 11.434667c-3.413333 2.901333-11.605333 9.728-98.474667 9.728z" fill="#6C9342" p-id="5800"></path><path d="M457.728 153.6c17.066667 0 325.461333 2.389333 454.485333 166.570667 0 0 53.589333 9.386667 41.130667 19.626666-8.021333 6.656-55.808 8.021333-93.866667 8.021334H814.08a413.354667 413.354667 0 0 1-328.533333-163.669334L456.874667 153.6m0-14.506667h-0.853334a14.506667 14.506667 0 0 0-10.410666 24.405334l28.16 29.525333a426.666667 426.666667 0 0 0 336.213333 168.618667h48.64c89.429333 0 97.962667-7.168 102.4-11.264a18.090667 18.090667 0 0 0 6.485333-18.773334c-1.536-5.461333-4.437333-17.066667-48.981333-25.258666-56.32-68.266667-148.309333-117.930667-273.066667-145.578667a949.418667 949.418667 0 0 0-187.733333-21.845333z" fill="#231F20" p-id="5801"></path><path d="M450.901333 315.733333h-2.56a7.168 7.168 0 0 1-4.266666-9.386666c2.048-5.290667 47.786667-130.048-59.562667-207.530667a7.168 7.168 0 1 1 8.533333-11.776c116.394667 83.968 65.194667 222.890667 64.682667 224.256a7.168 7.168 0 0 1-6.826667 4.437333z" fill="#231F20" p-id="5802"></path><path d="M954.709333 334.848c-4.437333-8.192-42.496-14.848-42.496-14.848a316.586667 316.586667 0 0 0-73.045333-66.56 736.597333 736.597333 0 0 0-247.296 27.818667 407.893333 407.893333 0 0 0 221.866667 65.706666c14.677333 0 79.530667 1.706667 115.712-1.877333z" fill="#BCC9AB" p-id="5803"></path><path d="M458.069333 330.24a131.072 131.072 0 0 1-51.2-12.970667 7.168 7.168 0 0 1 6.485334-12.970666s50.346667 24.576 73.557333 1.365333a7.168 7.168 0 0 1 10.24 10.24 52.565333 52.565333 0 0 1-39.082667 14.336z" fill="#231F20" p-id="5804"></path><path d="M557.909333 809.130667a7.168 7.168 0 0 1-2.901333-13.824s49.664-22.528 93.696-105.984a7.168 7.168 0 1 1 12.8 6.826666C614.4 785.066667 563.2 807.594667 560.64 808.448a7.168 7.168 0 0 1-2.730667 0.682667z" fill="#FFFFFF" p-id="5805"></path><path d="M186.197333 761.514667a7.168 7.168 0 0 1-6.485333-4.096C136.533333 666.794667 150.016 611.498667 150.528 609.109333a7.168 7.168 0 0 1 13.994667 3.413334S152.746667 665.6 192.682667 750.933333a7.168 7.168 0 0 1-6.485334 10.24zM218.624 821.418667a7.168 7.168 0 0 1-5.802667-2.901334 122.88 122.88 0 0 1-17.066666-29.696 7.168 7.168 0 0 1 13.653333-4.778666 111.445333 111.445333 0 0 0 14.848 25.941333 7.168 7.168 0 0 1-5.802667 11.605333z" fill="#231F20" p-id="5806"></path><path d="M906.922667 540.672s108.202667 126.122667 18.090666 307.2-378.88 143.36-450.730666-36.864z" fill="#FCDD23" p-id="5807"></path><path d="M720.725333 972.8h-12.288c-109.397333-4.608-204.8-66.901333-240.810666-158.890667l-2.218667-5.632 443.733333-276.821333 4.096 4.778667c1.194667 1.365333 110.250667 131.925333 18.944 314.368C892.757333 927.573333 814.592 972.8 720.725333 972.8z m-237.397333-158.890667c36.181333 83.626667 124.074667 139.946667 225.621333 144.213334 93.525333 3.925333 171.690667-38.741333 209.408-114.176 77.141333-153.6 4.608-268.970667-13.312-293.546667z" fill="#231F20" p-id="5808"></path><path d="M898.218667 552.96s102.4 119.466667 17.066666 290.133333-358.4 136.533333-426.666666-34.133333z" fill="#FFFFFF" p-id="5809"></path><path d="M889.002667 563.2l-161.621334 105.130667 17.92 20.992h161.621334c17.92 0 17.92-20.992 17.92-41.984s-17.92-20.992-17.92-41.984 0-42.154667-17.92-42.154667z" fill="#F69D03" p-id="5810"></path><path d="M763.392 684.885333s161.621333 18.090667 161.621333 36.010667-17.92 36.010667-17.92 54.101333 0 54.101333-17.92 54.101334-161.621333-126.122667-161.621333-126.122667 0-18.090667 35.84-18.090667z" fill="#F69D03" p-id="5811"></path><path d="M736.426667 733.866667s143.530667 88.234667 143.530666 106.325333-53.930667 73.045333-89.770666 73.045333-71.68-165.888-71.68-179.370666c0-20.650667 17.92 0 17.92 0zM699.733333 720.896a182.101333 182.101333 0 0 1 17.92 54.101333c0 18.090667 35.84 90.112 35.84 108.202667s0 54.101333-35.84 54.101333-89.770667 0-89.770666-18.090666 35.84-162.133333 35.84-162.133334S682.666667 702.805333 699.733333 720.896zM644.266667 715.605333s-31.914667 32.085333-47.786667 32.085334-79.701333 64-79.701333 64l16.042666 32.085333s47.786667 80.042667 79.701334 64 47.786667-160.256 47.786666-176.298667-0.170667-31.744-16.042666-15.872z" fill="#FC861D" p-id="5812"></path><path d="M582.485333 841.557333a7.168 7.168 0 0 1-6.314666-10.752l41.984-75.093333a7.168 7.168 0 0 1 12.629333 6.997333l-41.984 75.093334a7.168 7.168 0 0 1-6.314667 3.754666zM564.394667 873.813333a7.168 7.168 0 0 1-6.314667-10.752l10.069333-17.066666a7.168 7.168 0 1 1 12.629334 6.997333l-10.069334 17.066667a7.168 7.168 0 0 1-6.314666 3.754666zM694.272 889.173333a7.168 7.168 0 0 1-7.168-6.314666l-6.997333-55.978667a7.168 7.168 0 0 1 14.336-1.706667l6.997333 55.978667a7.168 7.168 0 0 1-6.314667 8.021333zM697.173333 921.6a7.168 7.168 0 0 1-7.168-6.314667l-1.706666-13.312a7.168 7.168 0 0 1 14.336-1.706666l1.706666 13.312a7.168 7.168 0 0 1-6.314666 8.021333zM809.813333 845.312a7.168 7.168 0 0 1-5.290666-2.389333l-58.538667-63.146667a7.168 7.168 0 1 1 10.581333-9.898667l58.538667 63.146667a7.168 7.168 0 0 1-5.290667 12.117333zM834.730667 872.277333a7.168 7.168 0 0 1-5.290667-1.877333l-13.994667-15.018667a7.168 7.168 0 1 1 10.581334-9.898666l13.994666 15.018666a7.168 7.168 0 0 1-5.290666 12.117334zM858.453333 761.344a7.168 7.168 0 0 1-4.096-1.194667l-70.997333-48.64a7.168 7.168 0 1 1 8.192-11.946666l70.997333 48.64a7.168 7.168 0 0 1-4.096 13.141333zM888.832 782.165333a7.168 7.168 0 0 1-4.096-1.194666l-17.066667-11.605334a7.168 7.168 0 0 1 8.192-11.946666l17.066667 11.605333a7.168 7.168 0 0 1-4.096 13.141333zM783.872 677.205333a7.168 7.168 0 0 1-2.218667-14.165333l81.749334-26.965333a7.168 7.168 0 0 1 4.608 13.824l-81.749334 26.965333z" fill="#FFFFFF" p-id="5813"></path><path d="M880.981333 645.12a7.168 7.168 0 0 1-2.218666-14.165333l19.456-6.485334a7.168 7.168 0 0 1 4.608 13.824l-19.456 6.485334z" fill="#FFFFFF" p-id="5814"></path></svg>