<?xml version="1.0" standalone="no"?><!DOCTYPE svg PUBLIC "-//W3C//DTD SVG 1.1//EN" "http://www.w3.org/Graphics/SVG/1.1/DTD/svg11.dtd"><svg t="1710213262210" class="icon" viewBox="0 0 1024 1024" version="1.1" xmlns="http://www.w3.org/2000/svg" p-id="5625" xmlns:xlink="http://www.w3.org/1999/xlink" width="200" height="200"><path d="M189.098667 595.797333V447.146667c0-8.704 3.242667-17.066667 4.096-26.112a580.266667 580.266667 0 0 1 5.632-66.218667 972.8 972.8 0 0 1 27.648-102.4 285.866667 285.866667 0 0 1 117.76-156.842667A266.069333 266.069333 0 0 1 733.866667 209.749333a641.365333 641.365333 0 0 1 58.88 244.565334 906.410667 906.410667 0 0 1-9.386667 224.085333 425.130667 425.130667 0 0 1-81.066667 193.194667 223.232 223.232 0 0 1-179.541333 88.746666c-22.698667 0-45.397333-1.536-68.266667-3.413333a263.338667 263.338667 0 0 1-119.466666-37.546667 278.869333 278.869333 0 0 1-127.829334-194.048c-1.706667-9.386667-3.754667-18.602667-4.949333-28.16-3.584-25.429333-6.656-51.2-10.24-76.117333a184.149333 184.149333 0 0 1-2.901333-25.258667z" fill="#9DC64E" p-id="5626"></path><path d="M282.624 836.266667c-1.194667-11.776-18.432-10.410667-19.456-22.186667s13.824-12.970667 12.8-24.576 1.194667-11.946667 0-23.722667-4.949333-11.434667-5.632-23.210666-12.970667-11.093333-13.653333-22.869334 18.773333-12.8 18.090666-24.576-10.752-11.264-11.264-23.04 6.997333-12.117333 6.485334-23.893333-10.410667-11.434667-10.752-23.210667-6.826667-11.605333-7.168-23.381333-2.389333-11.776-2.56-23.552 3.072-11.946667 2.901333-23.722667 14.677333-11.946667 14.506667-23.722666-15.872-11.776-15.872-23.552-2.218667-11.776-2.218667-23.552 19.114667-11.605333 19.285333-23.381334-17.066667-11.946667-17.066666-23.893333v-23.722667c0-11.946667 12.117333-11.434667 12.458666-23.210666s7.850667-11.605333 8.362667-23.210667-19.114667-12.458667-18.432-24.405333 20.821333-10.922667 21.333333-22.698667-8.021333-12.117333-7.338666-23.893333 3.584-11.605333 4.266666-23.381334-8.362667-12.288-7.509333-24.064-4.096-12.117333-3.072-23.893333 17.066667-10.581333 18.602667-22.186667-2.048-11.946667 0-23.722666a91.989333 91.989333 0 0 0-1.024-18.261334c-7.850667 10.752-17.92 22.869333-25.088 32.256a17.066667 17.066667 0 0 1 1.024 8.192c-1.024 11.776-10.069333 11.093333-11.093334 23.04s-11.434667 11.093333-12.458666 23.04 11.093333 12.629333 10.24 24.405334-13.994667 11.093333-14.677334 23.04-1.877333 11.776-2.389333 23.722666 14.677333 12.8 14.677333 24.064 5.632 12.117333 5.12 23.893334-6.826667 11.605333-7.338666 23.552 5.461333 12.117333 5.12 23.893333-9.045333 11.605333-9.216 23.552-2.389333 11.776-2.56 23.722667-6.656 11.776-6.826667 23.722666 17.066667 11.946667 17.066667 23.893334-5.802667 11.776-5.632 23.722666-15.018667 11.946667-14.848 23.893334 7.338667 11.776 7.509333 23.722666 7.850667 11.776 8.021333 23.552-4.096 11.946667-3.754666 23.893334 5.632 11.776 6.144 23.552-14.848 12.458667-14.336 24.405333 7.509333 11.605333 8.021333 23.381333 1.536 11.776 2.218667 23.722667 8.704 11.434667 9.557333 23.210667 2.389333 11.776 3.242667 23.552-5.973333 12.288-4.949334 24.234666 0 11.776 0 19.285334c12.970667 19.456 32.426667 46.592 47.616 66.56-2.218667-7.168-6.997333-8.362667-8.021333-18.261334s2.56-11.605333 1.536-23.722666zM321.877333 602.282667c0 6.485333-4.778667 6.485333-4.608 12.970666s19.456 6.144 19.626667 12.629334-4.437333 6.485333-4.266667 12.8-3.072 6.485333-2.901333 12.8 8.192 6.144 8.362667 12.629333-8.874667 6.656-8.704 12.970667-10.24 6.656-10.069334 13.141333 12.288 5.973333 12.629334 12.458667-12.970667 6.826667-12.629334 13.312 0 6.485333 0 12.970666 15.872 5.802667 16.213334 12.117334 6.656 6.144 6.997333 12.458666-5.973333 6.656-5.632 13.141334 6.144 6.144 6.656 12.458666-8.192 6.826667-7.850667 13.141334-1.706667 6.485333-1.194666 12.970666-6.144 6.826667-5.632 13.141334 17.92 5.290667 18.432 11.605333-5.290667 6.826667-4.778667 13.141333-14.506667 7.509333-13.994667 13.824 7.68 5.802667 8.192 12.288 8.021333 5.802667 8.704 12.117334-3.925333 6.656-3.242666 13.141333 5.802667 5.973333 6.485333 12.288-9.386667 6.997333-12.8 10.922667c9.045333 3.754667 21.845333 8.533333 34.133333 13.312a3.584 3.584 0 0 1 0-1.536c0-6.314667 1.877333-6.656 1.194667-12.970667s3.242667-6.656 2.56-12.970667 5.12-6.826667 4.608-13.141333-7.168-5.802667-7.68-12.117333 7.850667-6.997333 7.338667-13.312 1.024-6.485333 0-12.8-13.653333-5.461333-14.165334-11.776 1.365333-6.485333 0.853334-12.8-4.949333-6.144-5.461334-12.458667 14.506667-7.338667 14.165334-13.653333-9.557333-5.802667-9.898667-12.117334-5.461333-5.973333-5.973333-12.458666 13.312-7.168 12.970666-13.482667-8.704-5.973333-9.045333-12.288 1.365333-6.485333 1.024-12.8-9.045333-5.973333-9.386667-12.288 17.066667-6.997333 16.042667-13.312-6.997333-6.144-7.168-12.458667-9.557333-5.973333-9.728-12.458666 15.36-6.826667 15.189333-13.141334-18.261333-5.802667-18.432-12.288 8.362667-6.485333 8.192-12.970666 4.266667-6.485333 4.096-12.8 2.730667-6.485333 2.730667-12.8 2.389333-6.314667 2.389333-12.8-15.36-6.144-15.36-12.629334 12.8-6.485333 12.8-12.8v-12.629333c0-6.314667-11.946667-6.314667-11.946666-12.629333s1.877333-6.314667 1.877333-12.8 9.045333-6.314667 9.216-12.629334-17.066667-6.485333-16.213333-12.970666 20.138667-6.144 20.138666-12.458667-9.045333-6.485333-8.874666-12.8-3.584-6.485333-3.413334-12.8 12.629333-6.144 12.629334-12.458667 1.194667-6.314667 1.365333-12.629333-9.386667-6.656-9.045333-12.970667-1.024-6.314667 0-12.8-8.362667-6.656-8.021334-12.970666 18.944-5.632 19.285334-11.946667-12.629333-6.826667-12.458667-13.312 0-6.314667 0-12.8 10.922667-5.802667 11.434667-12.117333-2.048-6.485333-1.536-12.8-2.901333-6.485333-2.56-12.8 8.704-5.802667 9.216-12.117334 0-6.485333 0-12.8-4.949333-6.656-4.437334-12.970666-4.608-6.656-4.096-12.970667 2.730667-6.144 3.242667-12.458667-8.362667-6.997333-7.850667-13.312-1.365333-6.485333 0-12.8 13.653333-5.290667 14.336-11.605333-3.584-6.656-2.901333-12.970667-2.389333-6.656-1.706667-12.970666 10.069333-5.461333 10.752-11.776-9.557333-7.338667-8.874666-13.653334 1.536-6.314667 2.218666-12.629333 8.874667-5.461333 9.557334-11.776 2.389333-6.144 3.242666-12.458667 5.461333-5.802667 6.144-12.117333-6.485333-7.168-5.632-13.312 1.194667-6.314667 2.048-12.629333-1.194667-6.485333 0-12.8-3.413333-6.826667-2.389333-13.141334 12.8-4.778667 13.653333-11.093333-5.461333-6.144-9.898666-8.874667L364.885333 85.333333c2.048 1.536 3.754667 3.413333 3.413334 5.802667-0.853333 6.314667-20.309333 4.096-21.162667 10.410667s9.045333 7.509333 8.192 13.994666-8.362667 5.461333-9.216 11.946667 9.045333 7.509333 8.192 13.824 5.461333 6.997333 4.778667 13.482667 1.365333 6.656 0 12.970666-4.096 5.973333-4.778667 12.458667-15.36 4.949333-16.042667 11.434667 15.018667 7.850667 14.336 14.165333 1.536 6.656 0.853334 12.970667-19.456 4.778667-20.138667 11.093333 16.213333 7.850667 15.530667 14.165333 0 6.485333 0 12.8-12.288 5.461333-12.8 11.946667-8.021333 5.802667-8.533334 12.288 18.944 7.850667 18.432 14.165333-20.650667 4.949333-21.162666 11.434667 8.192 6.997333 7.850666 13.312-3.242667 6.144-3.584 12.629333 8.874667 6.997333 8.362667 13.312 4.608 6.656 4.096 12.970667-17.066667 5.461333-17.066667 11.946667 2.730667 6.656 2.389334 12.970666 2.901333 6.485333 2.56 12.970667 0 6.485333 0 12.8-4.096 6.314667-4.437334 12.629333 4.096 6.656 3.925334 12.970667-9.216 6.144-9.557334 12.629333 4.608 6.485333 4.266667 12.970667 2.730667 6.485333 2.56 12.970667-4.266667 6.314667-4.266667 12.629333 13.824 6.656 13.653334 13.141333 0 6.314667 0 12.8-3.754667 6.314667-3.925334 12.8-8.021333 6.314667-8.021333 12.8 9.045333 6.485333 9.045333 12.8v12.8c0 6.485333-9.898667 6.314667-9.898666 12.8s9.728 6.314667 9.728 12.8-10.752 6.656-10.581334 13.141334zM548.181333 594.602667c0-5.632-24.064-5.973333-23.893333-11.434667s11.434667-5.461333 11.434667-10.922667 5.802667-5.461333 5.973333-11.093333 3.925333-5.461333 3.925333-11.093333 3.413333-5.461333 3.413334-11.093334-19.968-5.290667-19.968-10.922666 17.066667-5.632 17.066666-11.093334v-11.093333c0-5.461333-17.066667-5.461333-17.066666-10.922667s2.218667-5.632 2.218666-11.093333 11.946667-5.802667 11.776-11.264-21.845333-5.12-22.016-10.581333 26.453333-6.144 26.282667-11.605334-12.288-5.290667-12.458667-10.752-5.12-5.290667-5.290666-10.922666 17.066667-5.973333 16.042666-11.605334 1.024-5.632 0-11.093333-12.970667-5.12-13.141333-10.581333-1.877333-5.461333-2.048-11.093334-11.776-4.949333-12.117333-10.581333 24.576-6.656 24.234666-12.288-17.066667-4.608-18.090666-10.069333 0-5.461333 0-11.093334 13.824-6.314667 13.482666-11.946666-3.584-5.290667-3.925333-10.922667-4.778667-5.290667-5.290667-10.752 10.752-6.314667 10.24-11.776-2.218667-5.461333-2.56-10.922667S529.066667 279.210667 529.066667 273.066667s-7.338667-4.949333-7.850667-10.581334 2.56-5.802667 2.048-11.264-12.288-4.608-12.970667-10.069333-3.072-5.290667-3.584-10.752 17.066667-6.997333 17.066667-12.629333-6.144-4.949333-6.826667-10.581334-4.608-5.12-5.12-10.581333 11.946667-6.656 11.264-12.288-14.336-4.096-15.018666-9.557333 0-5.632 0-11.093334 10.069333-6.656 9.386666-12.117333 1.536-5.802667 0-11.264 5.461333-6.144 4.608-11.776-10.069333-3.413333-11.605333-9.045333 0-5.461333-1.024-11.093334-3.413333-5.12-4.266667-10.581333-6.485333-4.778667-7.338666-10.24 14.165333-7.338667 14.165333-12.970667-22.698667-2.56-23.722667-8.021333 0-5.461333-1.194666-10.922667a3.413333 3.413333 0 0 1 0-1.877333l-15.36 1.536a11.605333 11.605333 0 0 1-5.632 3.413333c-1.706667 0-2.389333 0-2.901334-2.389333-11.264 1.365333-22.869333 2.901333-31.232 4.437333a9.557333 9.557333 0 0 1 1.024 2.56c0.853333 5.461333-4.096 6.144-3.242666 11.434667s23.722667 2.389333 24.576 7.850667-18.773333 8.021333-18.090667 13.482666-2.048 5.802667-1.194667 11.264 6.144 4.778667 6.826667 10.069334 17.066667 3.413333 17.066667 8.874666-25.088 8.533333-24.234667 13.824 13.994667 3.925333 14.848 9.216-9.386667 6.485333-8.704 11.946667 13.824 3.925333 14.506667 9.386667 9.045333 4.608 9.728 9.898666 3.413333 5.12 4.096 10.581334-3.754667 5.802667-3.242667 11.264-18.944 7.338667-18.261333 12.8 21.674667 3.413333 22.186666 8.874666 3.584 5.12 4.266667 10.581334-24.576 7.68-24.064 12.970666 23.04 3.584 23.552 9.045334 2.048 5.290667 2.389333 10.752-15.018667 6.656-14.677333 12.117333-9.386667 6.144-9.045333 11.605333 26.453333 3.584 26.965333 9.045334-26.453333 7.338667-25.941333 12.629333 12.117333 4.608 12.458666 10.069333-3.242667 5.632-2.901333 11.093334 12.8 4.778667 13.141333 10.069333 6.997333 5.12 7.338667 10.581333-21.674667 6.656-21.333333 11.946667 4.437333 5.290667 4.778666 10.581333 4.608 5.290667 4.778667 10.581334 1.024 5.461333 1.194667 10.752-4.949333 5.632-4.608 11.093333 6.144 5.290667 6.314666 10.752-11.776 5.802667-11.605333 11.264 6.485333 5.290667 6.656 10.752 4.096 5.290667 4.266667 10.752-5.12 5.632-5.12 10.922667 18.773333 5.12 18.773333 10.581333v10.922667c0 5.461333-4.778667 5.461333-4.608 10.922666s-10.581333 5.461333-10.410667 10.922667 12.117333 5.290667 12.117334 10.752V529.066667c0 5.461333-13.141333 5.461333-13.141334 10.922666s12.8 5.461333 12.8 10.922667-13.653333 5.290667-13.653333 10.752-6.485333 5.461333-6.485333 10.752 25.770667 5.802667 25.6 11.264-6.144 5.290667-6.314667 10.752-4.437333 5.461333-4.608 10.752 10.581333 5.632 10.410667 11.093333-12.117333 5.12-12.288 10.581334-14.165333 5.12-14.336 10.410666 15.872 5.973333 15.701333 11.434667-17.066667 4.778667-17.92 10.24-1.536 5.290667-1.877333 10.752 20.48 6.314667 20.309333 11.776 8.021333 5.802667 7.850667 11.264-8.704 5.12-9.045334 10.410667 7.509333 5.802667 7.168 11.264-11.776 4.778667-12.117333 10.24-3.242667 5.290667-3.584 10.752-9.045333 4.949333-9.557333 10.24 22.869333 6.826667 22.528 12.288-8.021333 4.949333-8.533334 10.410666-20.650667 4.096-20.992 9.386667 9.045333 6.144 8.704 11.434667 9.557333 6.144 9.045334 11.605333-6.485333 4.949333-6.997334 10.410667 6.485333 5.973333 5.973334 11.434666-20.992 3.754667-21.504 9.045334 8.533333 6.144 8.021333 11.605333 0 5.461333 0 10.922667 10.069333 6.485333 9.386667 11.776 1.536 5.632 0.853333 11.093333-9.728 4.437333-10.410667 9.898667-2.730667 5.12-3.413333 10.581333-10.069333 4.437333-10.752 9.728 4.778667 5.973333 4.096 11.434667-7.168 4.608-7.850667 10.069333 9.045333 6.485333 8.192 11.946667 13.482667 7.168 12.629334 12.458666a5.973333 5.973333 0 0 1-3.754667 4.437334c13.312 0 29.866667-1.194667 44.032-1.706667 0-3.754667-3.413333-4.949333-2.730667-9.728s12.8-4.096 13.653334-9.557333 7.68-4.778667 8.362666-10.24-2.901333-5.973333-2.048-11.434667 4.266667-5.12 4.949334-10.752 2.730667-5.290667 3.413333-10.752-3.754667-5.973333-3.072-11.605333 5.802667-4.949333 6.485333-10.581334-1.536-5.802667-1.024-11.264-7.68-6.314667-6.997333-11.776-14.165333-6.826667-13.482667-12.288 27.136-3.242667 27.648-8.704-20.138667-7.338667-19.626666-12.8 3.925333-5.290667 4.437333-10.752 5.632-5.12 6.144-10.581333 8.192-4.949333 8.704-10.410667-8.192-6.144-7.850667-11.605333 11.605333-4.778667 12.117334-10.24 2.389333-5.461333 2.901333-10.922667-17.066667-6.656-17.066667-12.117333 2.901333-5.290667 3.242667-10.922667-5.632-5.802667-5.290667-11.264 20.309333-4.437333 20.650667-10.069333-11.776-6.144-11.434667-11.605333-6.485333-5.802667-6.314666-11.264 18.602667-4.778667 18.944-10.24-10.922667-5.973333-10.581334-11.434667 2.56-5.461333 2.730667-10.922667-11.605333-5.973333-11.264-11.434666 22.357333-4.949333 22.528-10.410667-8.704-5.802667-8.533333-11.264-12.117333-5.802667-12.117334-11.264 21.845333-5.461333 22.016-11.093333zM659.114667 624.810667c0-6.485333 4.437333-6.314667 4.608-12.8s3.072-6.314667 3.072-12.8 2.56-6.314667 2.730666-12.8-15.189333-6.485333-15.189333-12.970667 12.970667-6.314667 12.970667-12.8v-12.8c0-6.314667-11.946667-6.485333-11.946667-12.8s1.706667-6.485333 1.706667-12.8 9.045333-6.485333 9.045333-12.970667-17.066667-6.314667-17.066667-12.629333 19.968-6.656 19.797334-13.141333-9.216-6.314667-9.386667-12.629334-3.754667-6.314667-3.925333-12.8 12.288-6.656 12.117333-13.141333 0-6.485333 0-12.8-9.728-6.144-9.898667-12.458667-1.365333-6.314667-1.706666-12.8-8.874667-6.144-9.216-12.458666 18.432-7.168 18.090666-13.482667-13.312-5.802667-13.653333-12.288 0-6.485333 0-12.8 10.24-6.826667 9.898667-13.312-2.730667-6.314667-3.072-12.629333-3.754667-6.144-4.096-12.629334 7.850667-6.826667 7.509333-13.312-1.706667-6.314667-2.218667-12.8-5.802667-5.973333-6.314666-12.458666-5.632-6.144-6.144-12.458667 1.706667-6.485333 1.194666-12.970667-9.386667-5.802667-10.069333-12.117333-2.56-6.314667-3.072-12.629333 12.458667-7.509333 11.946667-13.824-4.778667-5.973333-5.461334-12.458667-3.584-6.144-4.266666-12.458667 8.704-7.168 8.021333-13.653333-10.922667-5.461333-11.605333-11.776 0-6.485333 0-12.8 7.338667-7.168 6.656-13.482667 0.853333-6.485333 0-12.970666 3.925333-6.826667 3.072-13.312-8.192-5.632-8.874667-11.946667 0-5.632 0-7.850667c-12.458667-5.802667-28.16-11.946667-41.301333-17.066666-2.56 1.536-4.437333 3.072-4.096 5.12 0.853333 6.314667 10.922667 5.12 11.776 11.434666s-6.656 7.168-5.973334 13.482667 10.752 5.290667 11.434667 11.605333 7.168 5.632 7.850667 11.946667 2.901333 6.144 3.584 12.458667-2.56 6.656-1.877334 12.970666-13.994667 7.850667-13.312 14.165334 17.066667 4.778667 17.066667 11.264 2.901333 6.144 3.584 12.458666-18.261333 8.021333-17.066667 14.336 17.066667 4.949333 18.090667 11.264 1.706667 6.314667 2.218667 12.629334-11.093333 7.338667-10.581334 13.653333-6.826667 6.826667-6.314666 13.141333 20.138667 4.949333 20.650666 11.264-19.626667 7.68-19.114666 13.994667 9.216 5.802667 9.728 12.117333-2.218667 6.485333-1.877334 12.8 9.728 5.802667 10.069334 12.117334 5.461333 5.973333 5.802666 12.458666-16.042667 7.168-15.701333 13.482667 3.413333 6.144 3.754667 12.629333 3.584 6.144 3.925333 12.629334 0 6.314667 1.194667 12.629333-3.584 6.485333-3.242667 12.8 4.778667 6.144 4.949333 12.629333-8.704 6.656-8.533333 12.970667 4.949333 6.144 5.12 12.629333 3.242667 6.314667 3.413333 12.629334-3.925333 6.485333-3.754666 12.8 13.994667 6.144 14.165333 12.458666 0 6.314667 0 12.8-3.584 6.485333-3.413333 12.8-7.850667 6.485333-7.850667 12.8 9.216 6.314667 9.216 12.629334v12.8c0 6.485333-9.898667 6.314667-9.898667 12.8s9.557333 6.314667 9.557334 12.8-10.24 6.314667-10.24 12.629333-4.949333 6.314667-4.949334 12.629333 19.285333 6.485333 19.114667 12.970667-4.608 6.314667-4.778667 12.629333-3.413333 6.314667-3.584 12.629334 7.850667 6.485333 7.68 12.970666-9.216 6.144-9.386666 12.458667-10.752 5.973333-10.922667 12.458667 11.946667 6.656 11.605333 13.141333-13.482667 5.973333-13.653333 12.288-1.365333 6.314667-1.536 12.629333 15.36 6.997333 15.018667 13.312 5.973333 6.656 5.632 12.970667-6.656 5.973333-6.997334 12.458667 5.461333 6.656 5.12 12.970666-9.045333 5.802667-9.386666 12.288-2.56 6.314667-2.901334 12.629334-6.997333 5.973333-7.509333 12.288 17.066667 7.509333 17.066667 13.824-6.314667 5.973333-6.826667 12.288-15.530667 5.290667-16.213333 11.605333 6.656 6.826667 6.144 13.141333 6.997333 6.997333 6.314666 13.312-5.12 5.973333-5.632 12.288 4.608 6.826667 3.925334 13.141334-15.872 4.949333-17.066667 11.264 6.144 6.997333 5.461333 13.312 0 6.485333 0 12.8 7.168 7.168 6.485334 13.482666 0 6.656 0 11.434667l14.677333-7.168a4.949333 4.949333 0 0 1-1.194667-3.754667c0-6.314667 20.650667-4.437333 21.333334-10.922666s-14.848-7.850667-14.165334-14.165334 3.242667-6.144 3.925334-12.458666 4.608-5.973333 5.12-12.458667 6.485333-5.973333 7.168-12.288-5.973333-6.997333-5.290667-13.312 9.045333-5.802667 9.557333-12.117333 2.048-6.314667 2.56-12.8-12.629333-7.338667-12.117333-13.653334 2.389333-6.314667 2.901333-12.629333-3.925333-6.656-3.584-13.141333 15.530667-5.461333 15.872-11.946667-8.704-6.997333-8.192-13.312-5.632-6.485333-5.632-12.8 14.165333-5.632 14.506667-12.117333-8.021333-6.826667-7.68-13.312 2.048-6.314667 2.389333-12.8-8.533333-6.826667-8.192-13.141334 17.066667-5.802667 17.066667-12.117333-6.314667-6.656-6.144-13.141333-9.045333-6.656-8.704-13.141334 15.872-5.973333 16.042667-12.458666-17.066667-6.826667-17.066667-13.312 8.192-5.632 8.362667-12.288zM748.544 797.696a85.333333 85.333333 0 0 1-2.389333-18.944c0-11.946667-11.264-12.629333-10.581334-24.405333s20.138667-10.922667 20.821334-22.869334-9.386667-12.288-8.874667-24.234666 8.192-11.605333 8.704-23.552-9.386667-12.288-9.045333-24.064-5.973333-12.117333-5.632-23.893334-1.877333-11.946667-1.536-23.722666 3.584-11.776 3.754666-23.722667 14.848-11.776 15.018667-23.722667-15.872-11.946667-15.872-23.722666-2.389333-11.776-2.389333-23.722667 18.773333-11.946667 18.602666-23.893333-17.066667-11.605333-17.066666-23.552-1.365333-11.776-1.706667-23.722667 11.434667-12.117333 10.922667-24.064 6.997333-12.117333 6.485333-24.064-20.138667-11.093333-20.650667-23.04 19.626667-12.8 18.944-24.746667-9.386667-11.434667-10.24-23.210666 1.877333-11.946667 1.194667-23.893334-10.069333-11.264-11.093333-23.210666-5.973333-11.434667-6.826667-23.210667 15.36-13.141333 14.336-24.917333a44.714667 44.714667 0 0 0-1.024-6.485334 518.144 518.144 0 0 0-32.597333-52.565333 35.498667 35.498667 0 0 0-1.706667 14.848c1.194667 11.776-1.877333 12.117333 0 23.893333s9.045333 11.093333 10.24 22.869334-7.850667 12.458667-6.826667 24.234666-9.557333 12.458667-8.533333 24.234667 12.970667 10.922667 13.824 22.698667-12.288 12.629333-11.605333 24.234666 0 11.776 0 23.552 17.066667 11.093333 17.066666 22.869334 6.826667 11.605333 7.338667 23.381333-5.802667 12.117333-5.461333 23.893333 6.314667 11.605333 6.656 23.552-8.362667 11.946667-8.021334 23.893334-1.877333 11.776-1.706666 23.552-6.314667 11.776-6.314667 23.552 17.066667 11.776 17.066667 23.552-5.802667 11.776-5.802667 23.552-15.189333 11.605333-15.36 23.381333 6.997333 11.776 6.826667 23.552 7.338667 11.946667 6.997333 23.722667-4.949333 11.605333-5.290667 23.381333 4.778667 11.946667 4.437334 23.722667-15.872 11.264-17.066667 23.04 6.314667 11.946667 5.632 23.722666 0 11.776 0 23.552 7.168 12.288 6.485333 24.064 0 11.946667 0 23.722667-7.68 11.264-8.704 23.04-2.56 11.605333-3.584 23.381333-8.021333 11.264-9.216 22.869334a34.133333 34.133333 0 0 0 0 6.997333c12.970667-17.92 40.277333-66.56 51.370667-79.36z" fill="#38810E" p-id="5627"></path><path d="M405.845333 553.813333a14.848 14.848 0 0 0-17.066666-12.629333 15.36 15.36 0 0 0-13.824 17.066667 14.848 14.848 0 0 0 17.066666 12.629333 15.36 15.36 0 0 0 13.824-17.066667zM449.536 501.077333a14.848 14.848 0 0 0-17.066667-12.458666 15.189333 15.189333 0 0 0-13.653333 17.066666 14.848 14.848 0 0 0 17.066667 12.458667 15.36 15.36 0 0 0 13.653333-17.066667zM360.618667 601.258667a12.117333 12.117333 0 0 0-13.994667-10.24 12.458667 12.458667 0 0 0-11.093333 13.482666 12.117333 12.117333 0 0 0 13.994666 10.24 12.458667 12.458667 0 0 0 11.093334-13.482666zM404.992 607.402667a12.288 12.288 0 0 0 14.165333 10.24 12.629333 12.629333 0 0 0 11.264-13.653334 12.288 12.288 0 0 0-14.165333-10.24 12.629333 12.629333 0 0 0-11.264 13.653334zM337.749333 460.8a10.410667 10.410667 0 0 0-11.776-8.704 10.581333 10.581333 0 0 0-9.557333 11.434667 10.410667 10.410667 0 0 0 11.776 8.704 10.581333 10.581333 0 0 0 9.557333-11.434667zM439.125333 411.306667a7.509333 7.509333 0 0 0-8.704-6.314667 7.850667 7.850667 0 0 0-6.997333 8.362667 7.509333 7.509333 0 0 0 8.704 6.314666 7.850667 7.850667 0 0 0 6.997333-8.362666z" fill="#FFFFFF" p-id="5628"></path><path d="M310.772311 526.461205a7.338667 7.68 82.65 1 0 15.233789-1.965007 7.338667 7.68 82.65 1 0-15.233789 1.965007Z" fill="#FFFFFF" p-id="5629"></path><path d="M472.576 240.469333a15.189333 15.189333 0 0 0-17.066667-12.8 15.530667 15.530667 0 0 0-13.994666 17.066667 15.189333 15.189333 0 0 0 17.066666 12.8 15.530667 15.530667 0 0 0 13.994667-17.066667zM411.648 312.832a7.509333 7.509333 0 0 0-8.704-6.314667 7.850667 7.850667 0 0 0-6.997333 8.362667 7.509333 7.509333 0 0 0 8.704 6.314667 7.850667 7.850667 0 0 0 6.997333-8.362667zM482.304 323.242667a15.189333 15.189333 0 0 0-17.066667-12.8 15.530667 15.530667 0 0 0-13.994666 17.066666 15.189333 15.189333 0 0 0 17.066666 12.8 15.530667 15.530667 0 0 0 13.994667-17.066666z" fill="#FFFFFF" p-id="5630"></path><path d="M519.509333 967.68c-21.845333 0-43.861333-1.706667-64.682666-3.413333a271.189333 271.189333 0 0 1-122.197334-38.570667 287.402667 287.402667 0 0 1-131.242666-199.168l-0.853334-4.608c-1.536-7.850667-3.072-15.872-4.266666-23.893333-1.877333-12.970667-3.584-25.941333-5.290667-38.912s-3.242667-24.917333-4.949333-37.205334c0-2.901333-1.024-5.973333-1.706667-8.874666a80.213333 80.213333 0 0 1-2.389333-17.066667V447.146667a78.336 78.336 0 0 1 2.218666-17.066667 91.136 91.136 0 0 0 1.877334-10.410667c0-7.68 1.024-15.530667 1.365333-23.210666a267.776 267.776 0 0 1 4.266667-43.861334 983.893333 983.893333 0 0 1 27.818666-103.765333 292.010667 292.010667 0 0 1 120.832-160.085333 273.066667 273.066667 0 0 1 400.554667 117.76 646.826667 646.826667 0 0 1 59.562667 247.296 925.013333 925.013333 0 0 1-9.386667 225.962666c-15.872 83.456-41.984 145.92-82.432 196.437334a231.082667 231.082667 0 0 1-185.173333 91.477333z m-30.72-909.994667a259.413333 259.413333 0 0 0-140.629333 43.349334 277.674667 277.674667 0 0 0-114.858667 153.6 967.850667 967.850667 0 0 0-27.306666 102.4 252.757333 252.757333 0 0 0-4.096 41.472c0 7.850667 0 15.872-1.365334 23.893333a102.4 102.4 0 0 1-2.048 12.117333 66.389333 66.389333 0 0 0-1.877333 13.312v148.821334a68.266667 68.266667 0 0 0 2.218667 14.165333c0 3.242667 1.365333 6.656 1.877333 9.898667 1.706667 12.458667 3.413333 24.917333 4.949333 37.376s3.413333 25.770667 5.290667 38.741333c1.024 7.68 2.56 15.530667 4.096 23.210667l0.853333 4.608a269.994667 269.994667 0 0 0 124.586667 189.269333 256 256 0 0 0 115.712 36.522667c21.674667 1.877333 44.714667 3.584 67.242667 3.413333a216.917333 216.917333 0 0 0 173.909333-85.333333c39.424-49.152 64-107.861333 79.530667-189.952a912.042667 912.042667 0 0 0 9.216-221.866667 632.832 632.832 0 0 0-58.197334-241.834667A254.293333 254.293333 0 0 0 614.4 89.6a278.016 278.016 0 0 0-125.610667-31.914667z" fill="#231F20" p-id="5631"></path><path d="M840.533333 559.616s127.829333 132.266667 21.333334 321.365333-447.488 151.210667-532.821334-37.717333z" fill="#FFFFFF" p-id="5632"></path><path d="M620.544 1012.565333h-17.066667c-127.488-5.632-237.568-70.826667-280.405333-166.058666l-2.730667-6.144 522.24-290.133334 3.925334 4.096c1.365333 1.365333 130.389333 138.410667 22.357333 330.069334-46.250667 81.066667-137.898667 128.170667-248.32 128.170666z m-281.941333-166.229333c42.496 86.869333 145.749333 145.92 264.874666 151.210667 112.469333 4.949333 206.677333-39.936 251.904-119.466667 93.525333-165.888 3.925333-284.842667-17.066666-308.565333z" fill="#231F20" p-id="5633"></path><path d="M809.984 586.752s111.616 115.882667 18.602667 281.429333-392.533333 132.437333-466.602667-33.109333z" fill="#E24342" p-id="5634"></path><path d="M679.424 733.866667a6.656 6.656 0 0 0 0 10.24 9.216 9.216 0 0 0 11.776 0 6.656 6.656 0 0 0 0-10.24 9.216 9.216 0 0 0-11.776 0zM641.877333 732.842667a6.485333 6.485333 0 0 0 0 10.24 9.216 9.216 0 0 0 11.776 0 6.485333 6.485333 0 0 0 0-10.24 9.216 9.216 0 0 0-11.776 0zM715.093333 738.304a5.290667 5.290667 0 0 0 0 8.362667 7.509333 7.509333 0 0 0 9.557334 0 5.290667 5.290667 0 0 0 0-8.362667 7.509333 7.509333 0 0 0-9.557334 0zM704 719.36a5.461333 5.461333 0 0 0 0-8.362667 7.68 7.68 0 0 0-9.728 0 5.461333 5.461333 0 0 0 0 8.362667 7.68 7.68 0 0 0 9.728 0zM658.432 787.797333a4.608 4.608 0 0 0 0 6.997334 6.314667 6.314667 0 0 0 8.192 0 4.608 4.608 0 0 0 0-7.168 6.314667 6.314667 0 0 0-8.192 0.170666zM604.501333 762.709333a3.413333 3.413333 0 0 0 0 5.12 4.608 4.608 0 0 0 5.973334 0 3.413333 3.413333 0 0 0 0-5.290666 4.608 4.608 0 0 0-5.973334 0.170666zM691.2 773.802667a3.242667 3.242667 0 0 0 0 5.12 4.608 4.608 0 0 0 5.802667 0 3.242667 3.242667 0 0 0 0-5.12 4.608 4.608 0 0 0-5.802667 0zM516.949333 799.061333a6.656 6.656 0 0 0 0 10.410667 9.386667 9.386667 0 0 0 11.946667 0 6.656 6.656 0 0 0 0-10.410667 9.386667 9.386667 0 0 0-11.946667 0zM568.661333 802.133333a3.413333 3.413333 0 0 0 0 5.290667 4.778667 4.778667 0 0 0 5.973334 0 3.413333 3.413333 0 0 0 0-5.290667 4.778667 4.778667 0 0 0-5.973334 0zM551.253333 771.413333a6.656 6.656 0 0 0 0 10.410667 9.386667 9.386667 0 0 0 11.946667 0 6.656 6.656 0 0 0 0-10.410667 9.386667 9.386667 0 0 0-11.946667 0z" fill="#FFFFFF" p-id="5635"></path><path d="M631.466667 863.914667a7.168 7.168 0 0 0-4.266667 9.728 8.362667 8.362667 0 0 0 10.581333 3.925333 7.168 7.168 0 0 0 4.266667-9.728 8.362667 8.362667 0 0 0-10.581333-3.925333zM644.949333 832.853333a7.168 7.168 0 0 0-4.266666 9.728 8.362667 8.362667 0 0 0 10.581333 3.925334 7.168 7.168 0 0 0 4.266667-9.728 8.362667 8.362667 0 0 0-10.581334-3.925334zM620.544 894.293333a5.802667 5.802667 0 0 0-3.413333 7.850667 6.826667 6.826667 0 0 0 8.704 3.242667 5.802667 5.802667 0 0 0 3.413333-7.850667 6.826667 6.826667 0 0 0-8.704-3.242667zM600.405333 866.133333a5.973333 5.973333 0 0 0-3.584 8.021334 6.997333 6.997333 0 0 0 8.704 3.242666 5.973333 5.973333 0 0 0 3.584-8.021333 6.826667 6.826667 0 0 0-8.704-3.242667zM694.784 868.864a4.949333 4.949333 0 0 0-2.901333 6.826667 5.802667 5.802667 0 0 0 7.338666 2.730666 4.949333 4.949333 0 0 0 2.901334-6.826666 5.802667 5.802667 0 0 0-7.338667-2.730667zM694.272 821.930667a3.754667 3.754667 0 0 0 2.218667-4.949334 4.266667 4.266667 0 0 0-5.461334-2.048 3.584 3.584 0 0 0-2.218666 4.949334 4.266667 4.266667 0 0 0 5.461333 2.048zM666.794667 889.514667a3.584 3.584 0 0 0-2.218667 4.778666 4.266667 4.266667 0 0 0 5.290667 2.048 3.584 3.584 0 0 0 2.218666-4.778666 4.096 4.096 0 0 0-5.290666-2.048zM775.168 763.050667a8.533333 8.533333 0 0 0-10.752-4.096 7.338667 7.338667 0 0 0-4.437333 9.898666 8.533333 8.533333 0 0 0 10.752 4.096 7.338667 7.338667 0 0 0 4.437333-9.898666zM745.813333 802.133333a3.584 3.584 0 0 0-2.218666 4.949334 4.266667 4.266667 0 0 0 5.461333 2.048 3.584 3.584 0 0 0 2.218667-4.949334 4.266667 4.266667 0 0 0-5.461334-2.048zM721.92 775.509333a7.338667 7.338667 0 0 0-5.12 9.557334 8.533333 8.533333 0 0 0 10.752 4.096 7.338667 7.338667 0 0 0 4.266667-9.898667 8.533333 8.533333 0 0 0-9.898667-3.754667z" fill="" p-id="5636"></path></svg>