<?xml version="1.0" standalone="no"?><!DOCTYPE svg PUBLIC "-//W3C//DTD SVG 1.1//EN" "http://www.w3.org/Graphics/SVG/1.1/DTD/svg11.dtd"><svg t="1710054980723" class="icon" viewBox="0 0 1024 1024" version="1.1" xmlns="http://www.w3.org/2000/svg" p-id="1474" xmlns:xlink="http://www.w3.org/1999/xlink" width="200" height="200"><path d="M813.766831 449.655618c-23.050439 0-41.736167-18.301329-41.736167-40.877716 0-22.576388 18.685728-40.877716 41.736167-40.877716s41.736167 18.301329 41.736167 40.877716C855.502998 431.354289 836.81727 449.655618 813.766831 449.655618zM521.613663 756.239106c-103.726607 0-187.812751-82.356717-187.812751-183.950093 0-101.59313 84.086144-183.950093 187.812751-183.950093s187.812751 82.356962 187.812751 183.950093C709.426414 673.882389 625.34027 756.239106 521.613663 756.239106zM521.613663 422.403807c-84.381874 0-153.032612 67.237181-153.032612 149.885206s68.650738 149.885206 153.032612 149.885206c84.383593 0 153.032612-67.237181 153.032612-149.885206S605.997256 422.403807 521.613663 422.403807zM670.10054 216.284323c13.486638 0 24.460312 10.726332 24.460312 23.913065l0 23.858537 0 34.122608 34.903442 0 191.940682 0c13.486883 0 24.458592 10.728297 24.458592 23.913311l0 477.661981c0 13.186733-10.971709 23.913311-24.458592 23.913311L118.682312 823.667136c-13.486638 0-24.460312-10.726578-24.460312-23.913311l0-477.661981c0-13.185013 10.973674-23.913311 24.460312-23.913311l191.940928 0 34.903442 0 0-34.122608 0-23.858537c0-13.186733 10.973674-23.913065 24.460312-23.913065L670.10054 216.284323M670.10054 182.161716 369.986994 182.161716c-32.786667 0-59.363753 25.98268-59.363753 58.035673l0 23.858537L118.682312 264.055925c-32.786422 0-59.363753 25.98268-59.363753 58.035918l0 477.661981c0 32.053239 26.577332 58.035918 59.363753 58.035918l802.722663 0c32.784948 0 59.362034-25.98268 59.362034-58.035918l0-477.661981c0-32.053239-26.577086-58.035918-59.362034-58.035918L729.464294 264.055925l0-23.858537C729.464294 208.144395 702.886962 182.161716 670.10054 182.161716L670.10054 182.161716z" fill="#272636" p-id="1475"></path></svg>